<svg xmlns="http://www.w3.org/2000/svg" viewBox="0 0 300 240" role="img" aria-label="Privacy-safe contribution activity summary"><rect width="300" height="240" rx="18" fill="#fbfdf9"/><text x="18" y="28" font-family="-apple-system,BlinkMacSystemFont,Segoe UI,sans-serif" font-size="15" font-weight="650" fill="#2a4e31">Contribution activity</text><text x="18" y="48" font-family="-apple-system,BlinkMacSystemFont,Segoe UI,sans-serif" font-size="10" fill="#7a857b">September 2026</text><circle cx="26" cy="74" r="7" fill="#eaf5df"/><ellipse cx="26.0" cy="74.0" rx="4.3" ry="2.0" fill="#71a84c" transform="rotate(-24.0 26.0 74.0)"/><text x="45" y="78" font-family="-apple-system,BlinkMacSystemFont,Segoe UI,sans-serif" font-size="12" font-weight="600" fill="#324836">1 active days</text><text x="45" y="93" font-family="-apple-system,BlinkMacSystemFont,Segoe UI,sans-serif" font-size="9" fill="#7b847d">this month</text><circle cx="26" cy="116" r="7" fill="#eaf5df"/><ellipse cx="26.0" cy="116.0" rx="4.3" ry="2.0" fill="#71a84c" transform="rotate(24.0 26.0 116.0)"/><text x="45" y="120" font-family="-apple-system,BlinkMacSystemFont,Segoe UI,sans-serif" font-size="12" font-weight="600" fill="#324836">1 day streak</text><text x="45" y="135" font-family="-apple-system,BlinkMacSystemFont,Segoe UI,sans-serif" font-size="9" fill="#7b847d">current run</text><circle cx="26" cy="158" r="7" fill="#eaf5df"/><ellipse cx="26.0" cy="158.0" rx="4.3" ry="2.0" fill="#71a84c" transform="rotate(-24.0 26.0 158.0)"/><text x="45" y="162" font-family="-apple-system,BlinkMacSystemFont,Segoe UI,sans-serif" font-size="12" font-weight="600" fill="#324836">1 harvest days</text><text x="45" y="177" font-family="-apple-system,BlinkMacSystemFont,Segoe UI,sans-serif" font-size="9" fill="#7b847d">high activity</text><circle cx="26" cy="200" r="7" fill="#eaf5df"/><ellipse cx="26.0" cy="200.0" rx="4.3" ry="2.0" fill="#71a84c" transform="rotate(24.0 26.0 200.0)"/><text x="45" y="204" font-family="-apple-system,BlinkMacSystemFont,Segoe UI,sans-serif" font-size="12" font-weight="600" fill="#324836">2 active days this year</text><text x="45" y="219" font-family="-apple-system,BlinkMacSystemFont,Segoe UI,sans-serif" font-size="9" fill="#7b847d">year to date</text></svg>