<svg xmlns="http://www.w3.org/2000/svg" viewBox="0 0 760 470" role="img" aria-label="GitHub activity garden"><defs><linearGradient id="garden-bg" x1="0" y1="0" x2="0" y2="1"><stop offset="0" stop-color="#ffffff"/><stop offset="1" stop-color="#fbfdf7"/></linearGradient></defs><rect width="760" height="470" rx="18" fill="url(#garden-bg)"/><text x="24" y="34" font-family="-apple-system,BlinkMacSystemFont,Segoe UI,sans-serif" font-size="18" font-weight="650" fill="#274c2e">Activity</text><text x="54.0" y="56" font-family="-apple-system,BlinkMacSystemFont,Segoe UI,sans-serif" font-size="10" fill="#647064">Jan</text><text x="105.5" y="56" font-family="-apple-system,BlinkMacSystemFont,Segoe UI,sans-serif" font-size="10" fill="#647064">Feb</text><text x="156.9" y="56" font-family="-apple-system,BlinkMacSystemFont,Segoe UI,sans-serif" font-size="10" fill="#647064">Mar</text><text x="221.3" y="56" font-family="-apple-system,BlinkMacSystemFont,Segoe UI,sans-serif" font-size="10" fill="#647064">Apr</text><text x="272.8" y="56" font-family="-apple-system,BlinkMacSystemFont,Segoe UI,sans-serif" font-size="10" fill="#647064">May</text><text x="337.1" y="56" font-family="-apple-system,BlinkMacSystemFont,Segoe UI,sans-serif" font-size="10" fill="#647064">Jun</text><text x="388.6" y="56" font-family="-apple-system,BlinkMacSystemFont,Segoe UI,sans-serif" font-size="10" fill="#647064">Jul</text><text x="440.0" y="56" font-family="-apple-system,BlinkMacSystemFont,Segoe UI,sans-serif" font-size="10" fill="#647064">Aug</text><text x="504.4" y="56" font-family="-apple-system,BlinkMacSystemFont,Segoe UI,sans-serif" font-size="10" fill="#647064">Sep</text><text x="555.8" y="56" font-family="-apple-system,BlinkMacSystemFont,Segoe UI,sans-serif" font-size="10" fill="#647064">Oct</text><text x="607.3" y="56" font-family="-apple-system,BlinkMacSystemFont,Segoe UI,sans-serif" font-size="10" fill="#647064">Nov</text><text x="671.7" y="56" font-family="-apple-system,BlinkMacSystemFont,Segoe UI,sans-serif" font-size="10" fill="#647064">Dec</text><text x="15" y="99.0" font-family="-apple-system,BlinkMacSystemFont,Segoe UI,sans-serif" font-size="10" fill="#6f786f">Mon</text><text x="15" y="175.0" font-family="-apple-system,BlinkMacSystemFont,Segoe UI,sans-serif" font-size="10" fill="#6f786f">Wed</text><text x="15" y="251.0" font-family="-apple-system,BlinkMacSystemFont,Segoe UI,sans-serif" font-size="10" fill="#6f786f">Fri</text><path d="M50.0,111.0 Q380.0,113.0 736.0,111.0" stroke="#eee4c7" stroke-width="0.7" fill="none" opacity="0.65"/><path d="M50.0,149.0 Q380.0,151.0 736.0,149.0" stroke="#eee4c7" stroke-width="0.7" fill="none" opacity="0.65"/><path d="M50.0,187.0 Q380.0,189.0 736.0,187.0" stroke="#eee4c7" stroke-width="0.7" fill="none" opacity="0.65"/><path d="M50.0,225.0 Q380.0,227.0 736.0,225.0" stroke="#eee4c7" stroke-width="0.7" fill="none" opacity="0.65"/><path d="M50.0,263.0 Q380.0,265.0 736.0,263.0" stroke="#eee4c7" stroke-width="0.7" fill="none" opacity="0.65"/><path d="M50.0,301.0 Q380.0,303.0 736.0,301.0" stroke="#eee4c7" stroke-width="0.7" fill="none" opacity="0.65"/><path d="M50.0,339.0 Q380.0,341.0 736.0,339.0" stroke="#eee4c7" stroke-width="0.7" fill="none" opacity="0.65"/><g data-state="state-soil"><circle cx="60.4" cy="224.2" r="0.75" fill="#cdbb8b" opacity="0.28"/></g><g data-state="state-soil"><circle cx="60.4" cy="262.2" r="0.75" fill="#cdbb8b" opacity="0.28"/></g><g data-state="state-soil"><circle cx="60.4" cy="300.2" r="0.75" fill="#cdbb8b" opacity="0.28"/></g><g data-state="state-soil"><circle cx="60.4" cy="338.2" r="0.75" fill="#cdbb8b" opacity="0.28"/></g><g data-state="state-soil"><circle cx="73.3" cy="110.2" r="0.75" fill="#cdbb8b" opacity="0.28"/></g><g data-state="state-soil"><circle cx="73.3" cy="148.2" r="0.75" fill="#cdbb8b" opacity="0.28"/></g><g data-state="state-soil"><circle cx="73.3" cy="186.2" r="0.75" fill="#cdbb8b" opacity="0.28"/></g><g data-state="state-soil"><circle cx="73.3" cy="224.2" r="0.75" fill="#cdbb8b" opacity="0.28"/></g><g data-state="state-soil"><circle cx="73.3" cy="262.2" r="0.75" fill="#cdbb8b" opacity="0.28"/></g><g data-state="state-soil"><circle cx="73.3" cy="300.2" r="0.75" fill="#cdbb8b" opacity="0.28"/></g><g data-state="state-soil"><circle cx="73.3" cy="338.2" r="0.75" fill="#cdbb8b" opacity="0.28"/></g><g data-state="state-soil"><circle cx="86.2" cy="110.2" r="0.75" fill="#cdbb8b" opacity="0.28"/></g><g data-state="state-soil"><circle cx="86.2" cy="148.2" r="0.75" fill="#cdbb8b" opacity="0.28"/></g><g data-state="state-soil"><circle cx="86.2" cy="186.2" r="0.75" fill="#cdbb8b" opacity="0.28"/></g><g data-state="state-soil"><circle cx="86.2" cy="224.2" r="0.75" fill="#cdbb8b" opacity="0.28"/></g><g data-state="state-soil"><circle cx="86.2" cy="262.2" r="0.75" fill="#cdbb8b" opacity="0.28"/></g><g data-state="state-soil"><circle cx="86.2" cy="300.2" r="0.75" fill="#cdbb8b" opacity="0.28"/></g><g data-state="state-soil"><circle cx="86.2" cy="338.2" r="0.75" fill="#cdbb8b" opacity="0.28"/></g><g data-state="state-soil"><circle cx="99.0" cy="110.2" r="0.75" fill="#cdbb8b" opacity="0.28"/></g><g data-state="state-soil"><circle cx="99.0" cy="148.2" r="0.75" fill="#cdbb8b" opacity="0.28"/></g><g data-state="state-soil"><circle cx="99.0" cy="186.2" r="0.75" fill="#cdbb8b" opacity="0.28"/></g><g data-state="state-soil"><circle cx="99.0" cy="224.2" r="0.75" fill="#cdbb8b" opacity="0.28"/></g><g data-state="state-seed"><ellipse cx="99.0" cy="260.0" rx="2.3" ry="3.2" fill="#9b642f" transform="rotate(-28)"/><path d="M95.0,263.0 Q99.0,261.6 103.0,263.0" stroke="#cdbb8b" stroke-width="1" fill="none"/></g><g data-state="state-soil"><circle cx="99.0" cy="300.2" r="0.75" fill="#cdbb8b" opacity="0.28"/></g><g data-state="state-soil"><circle cx="99.0" cy="338.2" r="0.75" fill="#cdbb8b" opacity="0.28"/></g><g data-state="state-soil"><circle cx="111.9" cy="110.2" r="0.75" fill="#cdbb8b" opacity="0.28"/></g><g data-state="state-soil"><circle cx="111.9" cy="148.2" r="0.75" fill="#cdbb8b" opacity="0.28"/></g><g data-state="state-soil"><circle cx="111.9" cy="186.2" r="0.75" fill="#cdbb8b" opacity="0.28"/></g><g data-state="state-soil"><circle cx="111.9" cy="224.2" r="0.75" fill="#cdbb8b" opacity="0.28"/></g><g data-state="state-soil"><circle cx="111.9" cy="262.2" r="0.75" fill="#cdbb8b" opacity="0.28"/></g><g data-state="state-soil"><circle cx="111.9" cy="300.2" r="0.75" fill="#cdbb8b" opacity="0.28"/></g><g data-state="state-soil"><circle cx="111.9" cy="338.2" r="0.75" fill="#cdbb8b" opacity="0.28"/></g><g data-state="state-soil"><circle cx="124.8" cy="110.2" r="0.75" fill="#cdbb8b" opacity="0.28"/></g><g data-state="state-soil"><circle cx="124.8" cy="148.2" r="0.75" fill="#cdbb8b" opacity="0.28"/></g><g data-state="state-soil"><circle cx="124.8" cy="186.2" r="0.75" fill="#cdbb8b" opacity="0.28"/></g><g data-state="state-soil"><circle cx="124.8" cy="224.2" r="0.75" fill="#cdbb8b" opacity="0.28"/></g><g data-state="state-soil"><circle cx="124.8" cy="262.2" r="0.75" fill="#cdbb8b" opacity="0.28"/></g><g data-state="state-soil"><circle cx="124.8" cy="300.2" r="0.75" fill="#cdbb8b" opacity="0.28"/></g><g data-state="state-soil"><circle cx="124.8" cy="338.2" r="0.75" fill="#cdbb8b" opacity="0.28"/></g><g data-state="state-soil"><circle cx="137.6" cy="110.2" r="0.75" fill="#cdbb8b" opacity="0.28"/></g><g data-state="state-soil"><circle cx="137.6" cy="148.2" r="0.75" fill="#cdbb8b" opacity="0.28"/></g><g data-state="state-soil"><circle cx="137.6" cy="186.2" r="0.75" fill="#cdbb8b" opacity="0.28"/></g><g data-state="state-soil"><circle cx="137.6" cy="224.2" r="0.75" fill="#cdbb8b" opacity="0.28"/></g><g data-state="state-soil"><circle cx="137.6" cy="262.2" r="0.75" fill="#cdbb8b" opacity="0.28"/></g><g data-state="state-soil"><circle cx="137.6" cy="300.2" r="0.75" fill="#cdbb8b" opacity="0.28"/></g><g data-state="state-soil"><circle cx="137.6" cy="338.2" r="0.75" fill="#cdbb8b" opacity="0.28"/></g><g data-state="state-soil"><circle cx="150.5" cy="110.2" r="0.75" fill="#cdbb8b" opacity="0.28"/></g><g data-state="state-soil"><circle cx="150.5" cy="148.2" r="0.75" fill="#cdbb8b" opacity="0.28"/></g><g data-state="state-soil"><circle cx="150.5" cy="186.2" r="0.75" fill="#cdbb8b" opacity="0.28"/></g><g data-state="state-soil"><circle cx="150.5" cy="224.2" r="0.75" fill="#cdbb8b" opacity="0.28"/></g><g data-state="state-soil"><circle cx="150.5" cy="262.2" r="0.75" fill="#cdbb8b" opacity="0.28"/></g><g data-state="state-soil"><circle cx="150.5" cy="300.2" r="0.75" fill="#cdbb8b" opacity="0.28"/></g><g data-state="state-soil"><circle cx="150.5" cy="338.2" r="0.75" fill="#cdbb8b" opacity="0.28"/></g><g data-state="state-soil"><circle cx="163.4" cy="110.2" r="0.75" fill="#cdbb8b" opacity="0.28"/></g><g data-state="state-soil"><circle cx="163.4" cy="148.2" r="0.75" fill="#cdbb8b" opacity="0.28"/></g><g data-state="state-soil"><circle cx="163.4" cy="186.2" r="0.75" fill="#cdbb8b" opacity="0.28"/></g><g data-state="state-soil"><circle cx="163.4" cy="224.2" r="0.75" fill="#cdbb8b" opacity="0.28"/></g><g data-state="state-soil"><circle cx="163.4" cy="262.2" r="0.75" fill="#cdbb8b" opacity="0.28"/></g><g data-state="state-soil"><circle cx="163.4" cy="300.2" r="0.75" fill="#cdbb8b" opacity="0.28"/></g><g data-state="state-soil"><circle cx="163.4" cy="338.2" r="0.75" fill="#cdbb8b" opacity="0.28"/></g><g data-state="state-soil"><circle cx="176.2" cy="110.2" r="0.75" fill="#cdbb8b" opacity="0.28"/></g><g data-state="state-soil"><circle cx="176.2" cy="148.2" r="0.75" fill="#cdbb8b" opacity="0.28"/></g><g data-state="state-soil"><circle cx="176.2" cy="186.2" r="0.75" fill="#cdbb8b" opacity="0.28"/></g><g data-state="state-soil"><circle cx="176.2" cy="224.2" r="0.75" fill="#cdbb8b" opacity="0.28"/></g><g data-state="state-soil"><circle cx="176.2" cy="262.2" r="0.75" fill="#cdbb8b" opacity="0.28"/></g><g data-state="state-soil"><circle cx="176.2" cy="300.2" r="0.75" fill="#cdbb8b" opacity="0.28"/></g><g data-state="state-soil"><circle cx="176.2" cy="338.2" r="0.75" fill="#cdbb8b" opacity="0.28"/></g><g data-state="state-soil"><circle cx="189.1" cy="110.2" r="0.75" fill="#cdbb8b" opacity="0.28"/></g><g data-state="state-soil"><circle cx="189.1" cy="148.2" r="0.75" fill="#cdbb8b" opacity="0.28"/></g><g data-state="state-soil"><circle cx="189.1" cy="186.2" r="0.75" fill="#cdbb8b" opacity="0.28"/></g><g data-state="state-soil"><circle cx="189.1" cy="224.2" r="0.75" fill="#cdbb8b" opacity="0.28"/></g><g data-state="state-soil"><circle cx="189.1" cy="262.2" r="0.75" fill="#cdbb8b" opacity="0.28"/></g><g data-state="state-soil"><circle cx="189.1" cy="300.2" r="0.75" fill="#cdbb8b" opacity="0.28"/></g><g data-state="state-soil"><circle cx="189.1" cy="338.2" r="0.75" fill="#cdbb8b" opacity="0.28"/></g><g data-state="state-soil"><circle cx="202.0" cy="110.2" r="0.75" fill="#cdbb8b" opacity="0.28"/></g><g data-state="state-soil"><circle cx="202.0" cy="148.2" r="0.75" fill="#cdbb8b" opacity="0.28"/></g><g data-state="state-soil"><circle cx="202.0" cy="186.2" r="0.75" fill="#cdbb8b" opacity="0.28"/></g><g data-state="state-soil"><circle cx="202.0" cy="224.2" r="0.75" fill="#cdbb8b" opacity="0.28"/></g><g data-state="state-soil"><circle cx="202.0" cy="262.2" r="0.75" fill="#cdbb8b" opacity="0.28"/></g><g data-state="state-soil"><circle cx="202.0" cy="300.2" r="0.75" fill="#cdbb8b" opacity="0.28"/></g><g data-state="state-soil"><circle cx="202.0" cy="338.2" r="0.75" fill="#cdbb8b" opacity="0.28"/></g><g data-state="state-soil"><circle cx="214.8" cy="110.2" r="0.75" fill="#cdbb8b" opacity="0.28"/></g><g data-state="state-soil"><circle cx="214.8" cy="148.2" r="0.75" fill="#cdbb8b" opacity="0.28"/></g><g data-state="state-soil"><circle cx="214.8" cy="186.2" r="0.75" fill="#cdbb8b" opacity="0.28"/></g><g data-state="state-soil"><circle cx="214.8" cy="224.2" r="0.75" fill="#cdbb8b" opacity="0.28"/></g><g data-state="state-soil"><circle cx="214.8" cy="262.2" r="0.75" fill="#cdbb8b" opacity="0.28"/></g><g data-state="state-soil"><circle cx="214.8" cy="300.2" r="0.75" fill="#cdbb8b" opacity="0.28"/></g><g data-state="state-soil"><circle cx="214.8" cy="338.2" r="0.75" fill="#cdbb8b" opacity="0.28"/></g><g data-state="state-soil"><circle cx="227.7" cy="110.2" r="0.75" fill="#cdbb8b" opacity="0.28"/></g><g data-state="state-soil"><circle cx="227.7" cy="148.2" r="0.75" fill="#cdbb8b" opacity="0.28"/></g><g data-state="state-soil"><circle cx="227.7" cy="186.2" r="0.75" fill="#cdbb8b" opacity="0.28"/></g><g data-state="state-soil"><circle cx="227.7" cy="224.2" r="0.75" fill="#cdbb8b" opacity="0.28"/></g><g data-state="state-soil"><circle cx="227.7" cy="262.2" r="0.75" fill="#cdbb8b" opacity="0.28"/></g><g data-state="state-soil"><circle cx="227.7" cy="300.2" r="0.75" fill="#cdbb8b" opacity="0.28"/></g><g data-state="state-soil"><circle cx="227.7" cy="338.2" r="0.75" fill="#cdbb8b" opacity="0.28"/></g><g data-state="state-soil"><circle cx="240.6" cy="110.2" r="0.75" fill="#cdbb8b" opacity="0.28"/></g><g data-state="state-soil"><circle cx="240.6" cy="148.2" r="0.75" fill="#cdbb8b" opacity="0.28"/></g><g data-state="state-soil"><circle cx="240.6" cy="186.2" r="0.75" fill="#cdbb8b" opacity="0.28"/></g><g data-state="state-soil"><circle cx="240.6" cy="224.2" r="0.75" fill="#cdbb8b" opacity="0.28"/></g><g data-state="state-soil"><circle cx="240.6" cy="262.2" r="0.75" fill="#cdbb8b" opacity="0.28"/></g><g data-state="state-soil"><circle cx="240.6" cy="300.2" r="0.75" fill="#cdbb8b" opacity="0.28"/></g><g data-state="state-soil"><circle cx="240.6" cy="338.2" r="0.75" fill="#cdbb8b" opacity="0.28"/></g><g data-state="state-soil"><circle cx="253.5" cy="110.2" r="0.75" fill="#cdbb8b" opacity="0.28"/></g><g data-state="state-soil"><circle cx="253.5" cy="148.2" r="0.75" fill="#cdbb8b" opacity="0.28"/></g><g data-state="state-soil"><circle cx="253.5" cy="186.2" r="0.75" fill="#cdbb8b" opacity="0.28"/></g><g data-state="state-soil"><circle cx="253.5" cy="224.2" r="0.75" fill="#cdbb8b" opacity="0.28"/></g><g data-state="state-soil"><circle cx="253.5" cy="262.2" r="0.75" fill="#cdbb8b" opacity="0.28"/></g><g data-state="state-soil"><circle cx="253.5" cy="300.2" r="0.75" fill="#cdbb8b" opacity="0.28"/></g><g data-state="state-soil"><circle cx="253.5" cy="338.2" r="0.75" fill="#cdbb8b" opacity="0.28"/></g><g data-state="state-soil"><circle cx="266.3" cy="110.2" r="0.75" fill="#cdbb8b" opacity="0.28"/></g><g data-state="state-soil"><circle cx="266.3" cy="148.2" r="0.75" fill="#cdbb8b" opacity="0.28"/></g><g data-state="state-soil"><circle cx="266.3" cy="186.2" r="0.75" fill="#cdbb8b" opacity="0.28"/></g><g data-state="state-soil"><circle cx="266.3" cy="224.2" r="0.75" fill="#cdbb8b" opacity="0.28"/></g><g data-state="state-soil"><circle cx="266.3" cy="262.2" r="0.75" fill="#cdbb8b" opacity="0.28"/></g><g data-state="state-soil"><circle cx="266.3" cy="300.2" r="0.75" fill="#cdbb8b" opacity="0.28"/></g><g data-state="state-soil"><circle cx="266.3" cy="338.2" r="0.75" fill="#cdbb8b" opacity="0.28"/></g><g data-state="state-soil"><circle cx="279.2" cy="110.2" r="0.75" fill="#cdbb8b" opacity="0.28"/></g><g data-state="state-soil"><circle cx="279.2" cy="148.2" r="0.75" fill="#cdbb8b" opacity="0.28"/></g><g data-state="state-soil"><circle cx="279.2" cy="186.2" r="0.75" fill="#cdbb8b" opacity="0.28"/></g><g data-state="state-soil"><circle cx="279.2" cy="224.2" r="0.75" fill="#cdbb8b" opacity="0.28"/></g><g data-state="state-soil"><circle cx="279.2" cy="262.2" r="0.75" fill="#cdbb8b" opacity="0.28"/></g><g data-state="state-soil"><circle cx="279.2" cy="300.2" r="0.75" fill="#cdbb8b" opacity="0.28"/></g><g data-state="state-soil"><circle cx="279.2" cy="338.2" r="0.75" fill="#cdbb8b" opacity="0.28"/></g><g data-state="state-soil"><circle cx="292.1" cy="110.2" r="0.75" fill="#cdbb8b" opacity="0.28"/></g><g data-state="state-soil"><circle cx="292.1" cy="148.2" r="0.75" fill="#cdbb8b" opacity="0.28"/></g><g data-state="state-soil"><circle cx="292.1" cy="186.2" r="0.75" fill="#cdbb8b" opacity="0.28"/></g><g data-state="state-soil"><circle cx="292.1" cy="224.2" r="0.75" fill="#cdbb8b" opacity="0.28"/></g><g data-state="state-soil"><circle cx="292.1" cy="262.2" r="0.75" fill="#cdbb8b" opacity="0.28"/></g><g data-state="state-soil"><circle cx="292.1" cy="300.2" r="0.75" fill="#cdbb8b" opacity="0.28"/></g><g data-state="state-soil"><circle cx="292.1" cy="338.2" r="0.75" fill="#cdbb8b" opacity="0.28"/></g><g data-state="state-soil"><circle cx="304.9" cy="110.2" r="0.75" fill="#cdbb8b" opacity="0.28"/></g><g data-state="state-soil"><circle cx="304.9" cy="148.2" r="0.75" fill="#cdbb8b" opacity="0.28"/></g><g data-state="state-soil"><circle cx="304.9" cy="186.2" r="0.75" fill="#cdbb8b" opacity="0.28"/></g><g data-state="state-soil"><circle cx="304.9" cy="224.2" r="0.75" fill="#cdbb8b" opacity="0.28"/></g><g data-state="state-soil"><circle cx="304.9" cy="262.2" r="0.75" fill="#cdbb8b" opacity="0.28"/></g><g data-state="state-soil"><circle cx="304.9" cy="300.2" r="0.75" fill="#cdbb8b" opacity="0.28"/></g><g data-state="state-soil"><circle cx="304.9" cy="338.2" r="0.75" fill="#cdbb8b" opacity="0.28"/></g><g data-state="state-soil"><circle cx="317.8" cy="110.2" r="0.75" fill="#cdbb8b" opacity="0.28"/></g><g data-state="state-soil"><circle cx="317.8" cy="148.2" r="0.75" fill="#cdbb8b" opacity="0.28"/></g><g data-state="state-soil"><circle cx="317.8" cy="186.2" r="0.75" fill="#cdbb8b" opacity="0.28"/></g><g data-state="state-soil"><circle cx="317.8" cy="224.2" r="0.75" fill="#cdbb8b" opacity="0.28"/></g><g data-state="state-soil"><circle cx="317.8" cy="262.2" r="0.75" fill="#cdbb8b" opacity="0.28"/></g><g data-state="state-soil"><circle cx="317.8" cy="300.2" r="0.75" fill="#cdbb8b" opacity="0.28"/></g><g data-state="state-soil"><circle cx="317.8" cy="338.2" r="0.75" fill="#cdbb8b" opacity="0.28"/></g><g data-state="state-soil"><circle cx="330.7" cy="110.2" r="0.75" fill="#cdbb8b" opacity="0.28"/></g><g data-state="state-soil"><circle cx="330.7" cy="148.2" r="0.75" fill="#cdbb8b" opacity="0.28"/></g><g data-state="state-soil"><circle cx="330.7" cy="186.2" r="0.75" fill="#cdbb8b" opacity="0.28"/></g><g data-state="state-soil"><circle cx="330.7" cy="224.2" r="0.75" fill="#cdbb8b" opacity="0.28"/></g><g data-state="state-soil"><circle cx="330.7" cy="262.2" r="0.75" fill="#cdbb8b" opacity="0.28"/></g><g data-state="state-soil"><circle cx="330.7" cy="300.2" r="0.75" fill="#cdbb8b" opacity="0.28"/></g><g data-state="state-soil"><circle cx="330.7" cy="338.2" r="0.75" fill="#cdbb8b" opacity="0.28"/></g><g data-state="state-soil"><circle cx="343.5" cy="110.2" r="0.75" fill="#cdbb8b" opacity="0.28"/></g><g data-state="state-soil"><circle cx="343.5" cy="148.2" r="0.75" fill="#cdbb8b" opacity="0.28"/></g><g data-state="state-soil"><circle cx="343.5" cy="186.2" r="0.75" fill="#cdbb8b" opacity="0.28"/></g><g data-state="state-soil"><circle cx="343.5" cy="224.2" r="0.75" fill="#cdbb8b" opacity="0.28"/></g><g data-state="state-soil"><circle cx="343.5" cy="262.2" r="0.75" fill="#cdbb8b" opacity="0.28"/></g><g data-state="state-soil"><circle cx="343.5" cy="300.2" r="0.75" fill="#cdbb8b" opacity="0.28"/></g><g data-state="state-soil"><circle cx="343.5" cy="338.2" r="0.75" fill="#cdbb8b" opacity="0.28"/></g><g data-state="state-soil"><circle cx="356.4" cy="110.2" r="0.75" fill="#cdbb8b" opacity="0.28"/></g><g data-state="state-soil"><circle cx="356.4" cy="148.2" r="0.75" fill="#cdbb8b" opacity="0.28"/></g><g data-state="state-soil"><circle cx="356.4" cy="186.2" r="0.75" fill="#cdbb8b" opacity="0.28"/></g><g data-state="state-soil"><circle cx="356.4" cy="224.2" r="0.75" fill="#cdbb8b" opacity="0.28"/></g><g data-state="state-soil"><circle cx="356.4" cy="262.2" r="0.75" fill="#cdbb8b" opacity="0.28"/></g><g data-state="state-soil"><circle cx="356.4" cy="300.2" r="0.75" fill="#cdbb8b" opacity="0.28"/></g><g data-state="state-soil"><circle cx="356.4" cy="338.2" r="0.75" fill="#cdbb8b" opacity="0.28"/></g><g data-state="state-soil"><circle cx="369.3" cy="110.2" r="0.75" fill="#cdbb8b" opacity="0.28"/></g><g data-state="state-soil"><circle cx="369.3" cy="148.2" r="0.75" fill="#cdbb8b" opacity="0.28"/></g><g data-state="state-soil"><circle cx="369.3" cy="186.2" r="0.75" fill="#cdbb8b" opacity="0.28"/></g><g data-state="state-soil"><circle cx="369.3" cy="224.2" r="0.75" fill="#cdbb8b" opacity="0.28"/></g><g data-state="state-soil"><circle cx="369.3" cy="262.2" r="0.75" fill="#cdbb8b" opacity="0.28"/></g><g data-state="state-soil"><circle cx="369.3" cy="300.2" r="0.75" fill="#cdbb8b" opacity="0.28"/></g><g data-state="state-soil"><circle cx="369.3" cy="338.2" r="0.75" fill="#cdbb8b" opacity="0.28"/></g><g data-state="state-soil"><circle cx="382.1" cy="110.2" r="0.75" fill="#cdbb8b" opacity="0.28"/></g><g data-state="state-soil"><circle cx="382.1" cy="148.2" r="0.75" fill="#cdbb8b" opacity="0.28"/></g><g data-state="state-soil"><circle cx="382.1" cy="186.2" r="0.75" fill="#cdbb8b" opacity="0.28"/></g><g data-state="state-soil"><circle cx="382.1" cy="224.2" r="0.75" fill="#cdbb8b" opacity="0.28"/></g><g data-state="state-soil"><circle cx="382.1" cy="262.2" r="0.75" fill="#cdbb8b" opacity="0.28"/></g><g data-state="state-soil"><circle cx="382.1" cy="300.2" r="0.75" fill="#cdbb8b" opacity="0.28"/></g><g data-state="state-soil"><circle cx="382.1" cy="338.2" r="0.75" fill="#cdbb8b" opacity="0.28"/></g><g data-state="state-soil"><circle cx="395.0" cy="110.2" r="0.75" fill="#cdbb8b" opacity="0.28"/></g><g data-state="state-soil"><circle cx="395.0" cy="148.2" r="0.75" fill="#cdbb8b" opacity="0.28"/></g><g data-state="state-soil"><circle cx="395.0" cy="186.2" r="0.75" fill="#cdbb8b" opacity="0.28"/></g><g data-state="state-soil"><circle cx="395.0" cy="224.2" r="0.75" fill="#cdbb8b" opacity="0.28"/></g><g data-state="state-soil"><circle cx="395.0" cy="262.2" r="0.75" fill="#cdbb8b" opacity="0.28"/></g><g data-state="state-soil"><circle cx="395.0" cy="300.2" r="0.75" fill="#cdbb8b" opacity="0.28"/></g><g data-state="state-soil"><circle cx="395.0" cy="338.2" r="0.75" fill="#cdbb8b" opacity="0.28"/></g><g data-state="state-soil"><circle cx="407.9" cy="110.2" r="0.75" fill="#cdbb8b" opacity="0.28"/></g><g data-state="state-soil"><circle cx="407.9" cy="148.2" r="0.75" fill="#cdbb8b" opacity="0.28"/></g><g data-state="state-soil"><circle cx="407.9" cy="186.2" r="0.75" fill="#cdbb8b" opacity="0.28"/></g><g data-state="state-soil"><circle cx="407.9" cy="224.2" r="0.75" fill="#cdbb8b" opacity="0.28"/></g><g data-state="state-soil"><circle cx="407.9" cy="262.2" r="0.75" fill="#cdbb8b" opacity="0.28"/></g><g data-state="state-soil"><circle cx="407.9" cy="300.2" r="0.75" fill="#cdbb8b" opacity="0.28"/></g><g data-state="state-soil"><circle cx="407.9" cy="338.2" r="0.75" fill="#cdbb8b" opacity="0.28"/></g><g data-state="state-soil"><circle cx="420.7" cy="110.2" r="0.75" fill="#cdbb8b" opacity="0.28"/></g><g data-state="state-soil"><circle cx="420.7" cy="148.2" r="0.75" fill="#cdbb8b" opacity="0.28"/></g><g data-state="state-soil"><circle cx="420.7" cy="186.2" r="0.75" fill="#cdbb8b" opacity="0.28"/></g><g data-state="state-soil"><circle cx="420.7" cy="224.2" r="0.75" fill="#cdbb8b" opacity="0.28"/></g><g data-state="state-soil"><circle cx="420.7" cy="262.2" r="0.75" fill="#cdbb8b" opacity="0.28"/></g><g data-state="state-soil"><circle cx="420.7" cy="300.2" r="0.75" fill="#cdbb8b" opacity="0.28"/></g><g data-state="state-soil"><circle cx="420.7" cy="338.2" r="0.75" fill="#cdbb8b" opacity="0.28"/></g><g data-state="state-soil"><circle cx="433.6" cy="110.2" r="0.75" fill="#cdbb8b" opacity="0.28"/></g><g data-state="state-soil"><circle cx="433.6" cy="148.2" r="0.75" fill="#cdbb8b" opacity="0.28"/></g><g data-state="state-soil"><circle cx="433.6" cy="186.2" r="0.75" fill="#cdbb8b" opacity="0.28"/></g><g data-state="state-soil"><circle cx="433.6" cy="224.2" r="0.75" fill="#cdbb8b" opacity="0.28"/></g><g data-state="state-soil"><circle cx="433.6" cy="262.2" r="0.75" fill="#cdbb8b" opacity="0.28"/></g><g data-state="state-soil"><circle cx="433.6" cy="300.2" r="0.75" fill="#cdbb8b" opacity="0.28"/></g><g data-state="state-soil"><circle cx="433.6" cy="338.2" r="0.75" fill="#cdbb8b" opacity="0.28"/></g><g data-state="state-soil"><circle cx="446.5" cy="110.2" r="0.75" fill="#cdbb8b" opacity="0.28"/></g><g data-state="state-soil"><circle cx="446.5" cy="148.2" r="0.75" fill="#cdbb8b" opacity="0.28"/></g><g data-state="state-soil"><circle cx="446.5" cy="186.2" r="0.75" fill="#cdbb8b" opacity="0.28"/></g><g data-state="state-soil"><circle cx="446.5" cy="224.2" r="0.75" fill="#cdbb8b" opacity="0.28"/></g><g data-state="state-soil"><circle cx="446.5" cy="262.2" r="0.75" fill="#cdbb8b" opacity="0.28"/></g><g data-state="state-soil"><circle cx="446.5" cy="300.2" r="0.75" fill="#cdbb8b" opacity="0.28"/></g><g data-state="state-soil"><circle cx="446.5" cy="338.2" r="0.75" fill="#cdbb8b" opacity="0.28"/></g><g data-state="state-soil"><circle cx="459.3" cy="110.2" r="0.75" fill="#cdbb8b" opacity="0.28"/></g><g data-state="state-soil"><circle cx="459.3" cy="148.2" r="0.75" fill="#cdbb8b" opacity="0.28"/></g><g data-state="state-soil"><circle cx="459.3" cy="186.2" r="0.75" fill="#cdbb8b" opacity="0.28"/></g><g data-state="state-soil"><circle cx="459.3" cy="224.2" r="0.75" fill="#cdbb8b" opacity="0.28"/></g><g data-state="state-soil"><circle cx="459.3" cy="262.2" r="0.75" fill="#cdbb8b" opacity="0.28"/></g><g data-state="state-soil"><circle cx="459.3" cy="300.2" r="0.75" fill="#cdbb8b" opacity="0.28"/></g><g data-state="state-soil"><circle cx="459.3" cy="338.2" r="0.75" fill="#cdbb8b" opacity="0.28"/></g><g data-state="state-soil"><circle cx="472.2" cy="110.2" r="0.75" fill="#cdbb8b" opacity="0.28"/></g><g data-state="state-soil"><circle cx="472.2" cy="148.2" r="0.75" fill="#cdbb8b" opacity="0.28"/></g><g data-state="state-soil"><circle cx="472.2" cy="186.2" r="0.75" fill="#cdbb8b" opacity="0.28"/></g><g data-state="state-soil"><circle cx="472.2" cy="224.2" r="0.75" fill="#cdbb8b" opacity="0.28"/></g><g data-state="state-soil"><circle cx="472.2" cy="262.2" r="0.75" fill="#cdbb8b" opacity="0.28"/></g><g data-state="state-soil"><circle cx="472.2" cy="300.2" r="0.75" fill="#cdbb8b" opacity="0.28"/></g><g data-state="state-soil"><circle cx="472.2" cy="338.2" r="0.75" fill="#cdbb8b" opacity="0.28"/></g><g data-state="state-soil"><circle cx="485.1" cy="110.2" r="0.75" fill="#cdbb8b" opacity="0.28"/></g><g data-state="state-soil"><circle cx="485.1" cy="148.2" r="0.75" fill="#cdbb8b" opacity="0.28"/></g><g data-state="state-soil"><circle cx="485.1" cy="186.2" r="0.75" fill="#cdbb8b" opacity="0.28"/></g><g data-state="state-soil"><circle cx="485.1" cy="224.2" r="0.75" fill="#cdbb8b" opacity="0.28"/></g><g data-state="state-soil"><circle cx="485.1" cy="262.2" r="0.75" fill="#cdbb8b" opacity="0.28"/></g><g data-state="state-soil"><circle cx="485.1" cy="300.2" r="0.75" fill="#cdbb8b" opacity="0.28"/></g><g data-state="state-soil"><circle cx="485.1" cy="338.2" r="0.75" fill="#cdbb8b" opacity="0.28"/></g><g data-state="state-soil"><circle cx="497.9" cy="110.2" r="0.75" fill="#cdbb8b" opacity="0.28"/></g><g data-state="state-soil"><circle cx="497.9" cy="148.2" r="0.75" fill="#cdbb8b" opacity="0.28"/></g><g data-state="state-soil"><circle cx="497.9" cy="186.2" r="0.75" fill="#cdbb8b" opacity="0.28"/></g><g data-state="state-soil"><circle cx="497.9" cy="224.2" r="0.75" fill="#cdbb8b" opacity="0.28"/></g><g data-state="state-soil"><circle cx="497.9" cy="262.2" r="0.75" fill="#cdbb8b" opacity="0.28"/></g><g data-state="state-soil"><circle cx="497.9" cy="300.2" r="0.75" fill="#cdbb8b" opacity="0.28"/></g><g data-state="state-soil"><circle cx="497.9" cy="338.2" r="0.75" fill="#cdbb8b" opacity="0.28"/></g><g data-state="state-soil"><circle cx="510.8" cy="110.2" r="0.75" fill="#cdbb8b" opacity="0.28"/></g><g data-state="state-soil"><circle cx="510.8" cy="148.2" r="0.75" fill="#cdbb8b" opacity="0.28"/></g><g data-state="state-millet"><path d="M510.8,187.0 Q511.6,170.0 510.8,155.0" stroke="#4e8237" stroke-width="1.9" fill="none" stroke-linecap="round"/><ellipse cx="507.4" cy="178.0" rx="4.0" ry="1.8" fill="#769f3d" transform="rotate(-30.0 507.4 178.0)"/><ellipse cx="514.4" cy="173.0" rx="4.0" ry="1.8" fill="#6f9837" transform="rotate(30.0 514.4 173.0)"/><ellipse cx="507.8" cy="167.0" rx="3.7" ry="1.7" fill="#82aa45" transform="rotate(-28.0 507.8 167.0)"/><ellipse cx="510.8" cy="159.0" rx="1.5" ry="2.1" fill="#e0ab28"/><ellipse cx="509.0" cy="156.4" rx="1.5" ry="2.1" fill="#e0ab28"/><ellipse cx="512.4" cy="153.8" rx="1.5" ry="2.1" fill="#e0ab28"/><ellipse cx="509.4" cy="151.2" rx="1.5" ry="2.1" fill="#e0ab28"/><ellipse cx="512.0" cy="148.6" rx="1.5" ry="2.1" fill="#e0ab28"/><ellipse cx="510.0" cy="146.0" rx="1.5" ry="2.1" fill="#e0ab28"/><path d="M505.8,187.0 Q510.8,185.7 515.8,187.0" stroke="#cdbb8b" stroke-width="1" fill="none"/></g><g data-state="state-soil"><circle cx="510.8" cy="224.2" r="0.75" fill="#cdbb8b" opacity="0.28"/></g><g data-state="state-soil"><circle cx="510.8" cy="262.2" r="0.75" fill="#cdbb8b" opacity="0.28"/></g><g data-state="state-soil"><circle cx="510.8" cy="300.2" r="0.75" fill="#cdbb8b" opacity="0.28"/></g><g data-state="state-soil"><circle cx="510.8" cy="338.2" r="0.75" fill="#cdbb8b" opacity="0.28"/></g><g data-state="state-soil"><circle cx="523.7" cy="110.2" r="0.75" fill="#cdbb8b" opacity="0.28"/></g><g data-state="state-soil"><circle cx="523.7" cy="148.2" r="0.75" fill="#cdbb8b" opacity="0.28"/></g><g data-state="state-soil"><circle cx="523.7" cy="186.2" r="0.75" fill="#cdbb8b" opacity="0.28"/></g><g data-state="state-soil"><circle cx="523.7" cy="224.2" r="0.75" fill="#cdbb8b" opacity="0.28"/></g><g data-state="state-soil"><circle cx="523.7" cy="262.2" r="0.75" fill="#cdbb8b" opacity="0.28"/></g><g data-state="state-soil"><circle cx="523.7" cy="300.2" r="0.75" fill="#cdbb8b" opacity="0.28"/></g><g data-state="state-soil"><circle cx="523.7" cy="338.2" r="0.75" fill="#cdbb8b" opacity="0.28"/></g><g data-state="state-soil"><circle cx="536.5" cy="110.2" r="0.75" fill="#cdbb8b" opacity="0.28"/></g><g data-state="state-soil"><circle cx="536.5" cy="148.2" r="0.75" fill="#cdbb8b" opacity="0.28"/></g><g data-state="state-soil"><circle cx="536.5" cy="186.2" r="0.75" fill="#cdbb8b" opacity="0.28"/></g><g data-state="state-soil"><circle cx="536.5" cy="224.2" r="0.75" fill="#cdbb8b" opacity="0.28"/></g><g data-state="state-soil"><circle cx="536.5" cy="262.2" r="0.75" fill="#cdbb8b" opacity="0.28"/></g><g data-state="state-soil"><circle cx="536.5" cy="300.2" r="0.75" fill="#cdbb8b" opacity="0.28"/></g><g data-state="state-soil"><circle cx="536.5" cy="338.2" r="0.75" fill="#cdbb8b" opacity="0.28"/></g><g data-state="state-soil"><circle cx="549.4" cy="110.2" r="0.75" fill="#cdbb8b" opacity="0.28"/></g><g data-state="state-soil"><circle cx="549.4" cy="148.2" r="0.75" fill="#cdbb8b" opacity="0.28"/></g><g data-state="state-soil"><circle cx="549.4" cy="186.2" r="0.75" fill="#cdbb8b" opacity="0.28"/></g><g data-state="state-soil"><circle cx="549.4" cy="224.2" r="0.75" fill="#cdbb8b" opacity="0.28"/></g><g data-state="state-soil"><circle cx="549.4" cy="262.2" r="0.75" fill="#cdbb8b" opacity="0.28"/></g><g data-state="state-soil"><circle cx="549.4" cy="300.2" r="0.75" fill="#cdbb8b" opacity="0.28"/></g><g data-state="state-soil"><circle cx="549.4" cy="338.2" r="0.75" fill="#cdbb8b" opacity="0.28"/></g><g data-state="state-soil"><circle cx="562.3" cy="110.2" r="0.75" fill="#cdbb8b" opacity="0.28"/></g><g data-state="state-soil"><circle cx="562.3" cy="148.2" r="0.75" fill="#cdbb8b" opacity="0.28"/></g><g data-state="state-soil"><circle cx="562.3" cy="186.2" r="0.75" fill="#cdbb8b" opacity="0.28"/></g><g data-state="state-soil"><circle cx="562.3" cy="224.2" r="0.75" fill="#cdbb8b" opacity="0.28"/></g><g data-state="state-soil"><circle cx="562.3" cy="262.2" r="0.75" fill="#cdbb8b" opacity="0.28"/></g><g data-state="state-soil"><circle cx="562.3" cy="300.2" r="0.75" fill="#cdbb8b" opacity="0.28"/></g><g data-state="state-soil"><circle cx="562.3" cy="338.2" r="0.75" fill="#cdbb8b" opacity="0.28"/></g><g data-state="state-soil"><circle cx="575.2" cy="110.2" r="0.75" fill="#cdbb8b" opacity="0.28"/></g><g data-state="state-soil"><circle cx="575.2" cy="148.2" r="0.75" fill="#cdbb8b" opacity="0.28"/></g><g data-state="state-soil"><circle cx="575.2" cy="186.2" r="0.75" fill="#cdbb8b" opacity="0.28"/></g><g data-state="state-soil"><circle cx="575.2" cy="224.2" r="0.75" fill="#cdbb8b" opacity="0.28"/></g><g data-state="state-soil"><circle cx="575.2" cy="262.2" r="0.75" fill="#cdbb8b" opacity="0.28"/></g><g data-state="state-soil"><circle cx="575.2" cy="300.2" r="0.75" fill="#cdbb8b" opacity="0.28"/></g><g data-state="state-soil"><circle cx="575.2" cy="338.2" r="0.75" fill="#cdbb8b" opacity="0.28"/></g><g data-state="state-soil"><circle cx="588.0" cy="110.2" r="0.75" fill="#cdbb8b" opacity="0.28"/></g><g data-state="state-soil"><circle cx="588.0" cy="148.2" r="0.75" fill="#cdbb8b" opacity="0.28"/></g><g data-state="state-soil"><circle cx="588.0" cy="186.2" r="0.75" fill="#cdbb8b" opacity="0.28"/></g><g data-state="state-soil"><circle cx="588.0" cy="224.2" r="0.75" fill="#cdbb8b" opacity="0.28"/></g><g data-state="state-soil"><circle cx="588.0" cy="262.2" r="0.75" fill="#cdbb8b" opacity="0.28"/></g><g data-state="state-soil"><circle cx="588.0" cy="300.2" r="0.75" fill="#cdbb8b" opacity="0.28"/></g><g data-state="state-soil"><circle cx="588.0" cy="338.2" r="0.75" fill="#cdbb8b" opacity="0.28"/></g><g data-state="state-soil"><circle cx="600.9" cy="110.2" r="0.75" fill="#cdbb8b" opacity="0.28"/></g><g data-state="state-soil"><circle cx="600.9" cy="148.2" r="0.75" fill="#cdbb8b" opacity="0.28"/></g><g data-state="state-soil"><circle cx="600.9" cy="186.2" r="0.75" fill="#cdbb8b" opacity="0.28"/></g><g data-state="state-soil"><circle cx="600.9" cy="224.2" r="0.75" fill="#cdbb8b" opacity="0.28"/></g><g data-state="state-soil"><circle cx="600.9" cy="262.2" r="0.75" fill="#cdbb8b" opacity="0.28"/></g><g data-state="state-soil"><circle cx="600.9" cy="300.2" r="0.75" fill="#cdbb8b" opacity="0.28"/></g><g data-state="state-soil"><circle cx="600.9" cy="338.2" r="0.75" fill="#cdbb8b" opacity="0.28"/></g><g data-state="state-soil"><circle cx="613.8" cy="110.2" r="0.75" fill="#cdbb8b" opacity="0.28"/></g><g data-state="state-soil"><circle cx="613.8" cy="148.2" r="0.75" fill="#cdbb8b" opacity="0.28"/></g><g data-state="state-soil"><circle cx="613.8" cy="186.2" r="0.75" fill="#cdbb8b" opacity="0.28"/></g><g data-state="state-soil"><circle cx="613.8" cy="224.2" r="0.75" fill="#cdbb8b" opacity="0.28"/></g><g data-state="state-soil"><circle cx="613.8" cy="262.2" r="0.75" fill="#cdbb8b" opacity="0.28"/></g><g data-state="state-soil"><circle cx="613.8" cy="300.2" r="0.75" fill="#cdbb8b" opacity="0.28"/></g><g data-state="state-soil"><circle cx="613.8" cy="338.2" r="0.75" fill="#cdbb8b" opacity="0.28"/></g><g data-state="state-soil"><circle cx="626.6" cy="110.2" r="0.75" fill="#cdbb8b" opacity="0.28"/></g><g data-state="state-soil"><circle cx="626.6" cy="148.2" r="0.75" fill="#cdbb8b" opacity="0.28"/></g><g data-state="state-soil"><circle cx="626.6" cy="186.2" r="0.75" fill="#cdbb8b" opacity="0.28"/></g><g data-state="state-soil"><circle cx="626.6" cy="224.2" r="0.75" fill="#cdbb8b" opacity="0.28"/></g><g data-state="state-soil"><circle cx="626.6" cy="262.2" r="0.75" fill="#cdbb8b" opacity="0.28"/></g><g data-state="state-soil"><circle cx="626.6" cy="300.2" r="0.75" fill="#cdbb8b" opacity="0.28"/></g><g data-state="state-soil"><circle cx="626.6" cy="338.2" r="0.75" fill="#cdbb8b" opacity="0.28"/></g><g data-state="state-soil"><circle cx="639.5" cy="110.2" r="0.75" fill="#cdbb8b" opacity="0.28"/></g><g data-state="state-soil"><circle cx="639.5" cy="148.2" r="0.75" fill="#cdbb8b" opacity="0.28"/></g><g data-state="state-soil"><circle cx="639.5" cy="186.2" r="0.75" fill="#cdbb8b" opacity="0.28"/></g><g data-state="state-soil"><circle cx="639.5" cy="224.2" r="0.75" fill="#cdbb8b" opacity="0.28"/></g><g data-state="state-soil"><circle cx="639.5" cy="262.2" r="0.75" fill="#cdbb8b" opacity="0.28"/></g><g data-state="state-soil"><circle cx="639.5" cy="300.2" r="0.75" fill="#cdbb8b" opacity="0.28"/></g><g data-state="state-soil"><circle cx="639.5" cy="338.2" r="0.75" fill="#cdbb8b" opacity="0.28"/></g><g data-state="state-soil"><circle cx="652.4" cy="110.2" r="0.75" fill="#cdbb8b" opacity="0.28"/></g><g data-state="state-soil"><circle cx="652.4" cy="148.2" r="0.75" fill="#cdbb8b" opacity="0.28"/></g><g data-state="state-soil"><circle cx="652.4" cy="186.2" r="0.75" fill="#cdbb8b" opacity="0.28"/></g><g data-state="state-soil"><circle cx="652.4" cy="224.2" r="0.75" fill="#cdbb8b" opacity="0.28"/></g><g data-state="state-soil"><circle cx="652.4" cy="262.2" r="0.75" fill="#cdbb8b" opacity="0.28"/></g><g data-state="state-soil"><circle cx="652.4" cy="300.2" r="0.75" fill="#cdbb8b" opacity="0.28"/></g><g data-state="state-soil"><circle cx="652.4" cy="338.2" r="0.75" fill="#cdbb8b" opacity="0.28"/></g><g data-state="state-soil"><circle cx="665.2" cy="110.2" r="0.75" fill="#cdbb8b" opacity="0.28"/></g><g data-state="state-soil"><circle cx="665.2" cy="148.2" r="0.75" fill="#cdbb8b" opacity="0.28"/></g><g data-state="state-soil"><circle cx="665.2" cy="186.2" r="0.75" fill="#cdbb8b" opacity="0.28"/></g><g data-state="state-soil"><circle cx="665.2" cy="224.2" r="0.75" fill="#cdbb8b" opacity="0.28"/></g><g data-state="state-soil"><circle cx="665.2" cy="262.2" r="0.75" fill="#cdbb8b" opacity="0.28"/></g><g data-state="state-soil"><circle cx="665.2" cy="300.2" r="0.75" fill="#cdbb8b" opacity="0.28"/></g><g data-state="state-soil"><circle cx="665.2" cy="338.2" r="0.75" fill="#cdbb8b" opacity="0.28"/></g><g data-state="state-soil"><circle cx="678.1" cy="110.2" r="0.75" fill="#cdbb8b" opacity="0.28"/></g><g data-state="state-soil"><circle cx="678.1" cy="148.2" r="0.75" fill="#cdbb8b" opacity="0.28"/></g><g data-state="state-soil"><circle cx="678.1" cy="186.2" r="0.75" fill="#cdbb8b" opacity="0.28"/></g><g data-state="state-soil"><circle cx="678.1" cy="224.2" r="0.75" fill="#cdbb8b" opacity="0.28"/></g><g data-state="state-soil"><circle cx="678.1" cy="262.2" r="0.75" fill="#cdbb8b" opacity="0.28"/></g><g data-state="state-soil"><circle cx="678.1" cy="300.2" r="0.75" fill="#cdbb8b" opacity="0.28"/></g><g data-state="state-soil"><circle cx="678.1" cy="338.2" r="0.75" fill="#cdbb8b" opacity="0.28"/></g><g data-state="state-soil"><circle cx="691.0" cy="110.2" r="0.75" fill="#cdbb8b" opacity="0.28"/></g><g data-state="state-soil"><circle cx="691.0" cy="148.2" r="0.75" fill="#cdbb8b" opacity="0.28"/></g><g data-state="state-soil"><circle cx="691.0" cy="186.2" r="0.75" fill="#cdbb8b" opacity="0.28"/></g><g data-state="state-soil"><circle cx="691.0" cy="224.2" r="0.75" fill="#cdbb8b" opacity="0.28"/></g><g data-state="state-soil"><circle cx="691.0" cy="262.2" r="0.75" fill="#cdbb8b" opacity="0.28"/></g><g data-state="state-soil"><circle cx="691.0" cy="300.2" r="0.75" fill="#cdbb8b" opacity="0.28"/></g><g data-state="state-soil"><circle cx="691.0" cy="338.2" r="0.75" fill="#cdbb8b" opacity="0.28"/></g><g data-state="state-soil"><circle cx="703.8" cy="110.2" r="0.75" fill="#cdbb8b" opacity="0.28"/></g><g data-state="state-soil"><circle cx="703.8" cy="148.2" r="0.75" fill="#cdbb8b" opacity="0.28"/></g><g data-state="state-soil"><circle cx="703.8" cy="186.2" r="0.75" fill="#cdbb8b" opacity="0.28"/></g><g data-state="state-soil"><circle cx="703.8" cy="224.2" r="0.75" fill="#cdbb8b" opacity="0.28"/></g><g data-state="state-soil"><circle cx="703.8" cy="262.2" r="0.75" fill="#cdbb8b" opacity="0.28"/></g><g data-state="state-soil"><circle cx="703.8" cy="300.2" r="0.75" fill="#cdbb8b" opacity="0.28"/></g><g data-state="state-soil"><circle cx="703.8" cy="338.2" r="0.75" fill="#cdbb8b" opacity="0.28"/></g><g data-state="state-soil"><circle cx="716.7" cy="110.2" r="0.75" fill="#cdbb8b" opacity="0.28"/></g><g data-state="state-soil"><circle cx="716.7" cy="148.2" r="0.75" fill="#cdbb8b" opacity="0.28"/></g><g data-state="state-soil"><circle cx="716.7" cy="186.2" r="0.75" fill="#cdbb8b" opacity="0.28"/></g><g data-state="state-soil"><circle cx="716.7" cy="224.2" r="0.75" fill="#cdbb8b" opacity="0.28"/></g><g data-state="state-soil"><circle cx="716.7" cy="262.2" r="0.75" fill="#cdbb8b" opacity="0.28"/></g><g data-state="state-soil"><circle cx="716.7" cy="300.2" r="0.75" fill="#cdbb8b" opacity="0.28"/></g><g data-state="state-soil"><circle cx="716.7" cy="338.2" r="0.75" fill="#cdbb8b" opacity="0.28"/></g><g data-state="state-soil"><circle cx="729.6" cy="110.2" r="0.75" fill="#cdbb8b" opacity="0.28"/></g><g data-state="state-soil"><circle cx="729.6" cy="148.2" r="0.75" fill="#cdbb8b" opacity="0.28"/></g><g data-state="state-soil"><circle cx="729.6" cy="186.2" r="0.75" fill="#cdbb8b" opacity="0.28"/></g><g data-state="state-soil"><circle cx="729.6" cy="224.2" r="0.75" fill="#cdbb8b" opacity="0.28"/></g><g id="watering-can"><path d="M42,401 h34 q8,0 8,8 v22 q0,8 -8,8 h-34 z" fill="#6d9b83" stroke="#4e745f" stroke-width="2"/><path d="M48,399 q10,-18 22,-2" fill="none" stroke="#4e745f" stroke-width="5" stroke-linecap="round"/><path d="M80,409 L116,389 L121,396 L85,421 Z" fill="#6d9b83" stroke="#4e745f" stroke-width="2"/><path d="M116,389 q8,3 11,10" fill="none" stroke="#4e745f" stroke-width="4" stroke-linecap="round"/><path d="M124,397 Q148,371 176,335" fill="none" stroke="#7cc9eb" stroke-width="2.2" stroke-linecap="round"/><path d="M126,403 Q156,377 190,341" fill="none" stroke="#9bdcf4" stroke-width="1.8" stroke-linecap="round"/><circle cx="176" cy="335" r="2.5" fill="#7cc9eb"/><circle cx="190" cy="341" r="2" fill="#9bdcf4"/></g><text x="572" y="448" font-family="-apple-system,BlinkMacSystemFont,Segoe UI,sans-serif" font-size="9" fill="#6f786f">Less</text><g data-state="state-soil"><circle cx="618.0" cy="447.2" r="0.75" fill="#cdbb8b" opacity="0.28"/></g><g data-state="state-seed"><ellipse cx="643.0" cy="445.0" rx="2.3" ry="3.2" fill="#9b642f" transform="rotate(-28)"/><path d="M639.0,448.0 Q643.0,446.6 647.0,448.0" stroke="#cdbb8b" stroke-width="1" fill="none"/></g><g data-state="state-sprout"><path d="M668.0,448.0 Q667.5,440.0 668.0,434.0" stroke="#5f8f3f" stroke-width="1.7" fill="none" stroke-linecap="round"/><ellipse cx="665.0" cy="438.0" rx="3.0" ry="1.7" fill="#7fbf4d" transform="rotate(-28.0 665.0 438.0)"/><ellipse cx="671.0" cy="435.5" rx="3.0" ry="1.7" fill="#6fad44" transform="rotate(28.0 671.0 435.5)"/><path d="M663.0,448.0 Q668.0,446.6 673.0,448.0" stroke="#cdbb8b" stroke-width="1" fill="none"/></g><g data-state="state-leafy"><path d="M693.0,448.0 Q693.5,435.0 693.0,424.0" stroke="#4e8237" stroke-width="1.8" fill="none" stroke-linecap="round"/><ellipse cx="689.6" cy="440.0" rx="3.8" ry="1.8" fill="#7bb34d" transform="rotate(-30.0 689.6 440.0)"/><ellipse cx="696.6" cy="436.0" rx="4.0" ry="1.9" fill="#6ea641" transform="rotate(28.0 696.6 436.0)"/><ellipse cx="689.8" cy="431.0" rx="3.6" ry="1.8" fill="#83bd51" transform="rotate(-28.0 689.8 431.0)"/><ellipse cx="696.2" cy="427.0" rx="3.5" ry="1.7" fill="#5f9939" transform="rotate(30.0 696.2 427.0)"/><path d="M688.0,448.0 Q693.0,446.7 698.0,448.0" stroke="#cdbb8b" stroke-width="1" fill="none"/></g><g data-state="state-millet"><path d="M718.0,448.0 Q718.8,431.0 718.0,416.0" stroke="#4e8237" stroke-width="1.9" fill="none" stroke-linecap="round"/><ellipse cx="714.6" cy="439.0" rx="4.0" ry="1.8" fill="#769f3d" transform="rotate(-30.0 714.6 439.0)"/><ellipse cx="721.6" cy="434.0" rx="4.0" ry="1.8" fill="#6f9837" transform="rotate(30.0 721.6 434.0)"/><ellipse cx="715.0" cy="428.0" rx="3.7" ry="1.7" fill="#82aa45" transform="rotate(-28.0 715.0 428.0)"/><ellipse cx="718.0" cy="420.0" rx="1.5" ry="2.1" fill="#e0ab28"/><ellipse cx="716.2" cy="417.4" rx="1.5" ry="2.1" fill="#e0ab28"/><ellipse cx="719.6" cy="414.8" rx="1.5" ry="2.1" fill="#e0ab28"/><ellipse cx="716.6" cy="412.2" rx="1.5" ry="2.1" fill="#e0ab28"/><ellipse cx="719.2" cy="409.6" rx="1.5" ry="2.1" fill="#e0ab28"/><ellipse cx="717.2" cy="407.0" rx="1.5" ry="2.1" fill="#e0ab28"/><path d="M713.0,448.0 Q718.0,446.7 723.0,448.0" stroke="#cdbb8b" stroke-width="1" fill="none"/></g><text x="748" y="448" text-anchor="end" font-family="-apple-system,BlinkMacSystemFont,Segoe UI,sans-serif" font-size="9" fill="#6f786f">More</text></svg>