<svg xmlns="http://www.w3.org/2000/svg" viewBox="0 0 1200 320" role="img" aria-label="day sky"><defs><linearGradient id="sky-bg" x1="0" y1="0" x2="0" y2="1"><stop offset="0" stop-color="#eaf7ff"/><stop offset="1" stop-color="#fffdf3"/></linearGradient></defs><rect width="1200" height="320" rx="20" fill="url(#sky-bg)"/><g id="sky-sun"><circle cx="980" cy="86" r="52" fill="#f7c84a" opacity="0.20"/><circle cx="980" cy="86" r="38" fill="#f8c84e"/></g><g data-cloud="sky-cloud" opacity="0.90" transform="translate(170.0 125.0) scale(1.10)"><ellipse cx="0" cy="14" rx="34" ry="16" fill="#ffffff"/><circle cx="-20" cy="6" r="18" fill="#ffffff"/><circle cx="2" cy="0" r="24" fill="#ffffff"/><circle cx="24" cy="8" r="18" fill="#ffffff"/></g><g data-cloud="sky-cloud" opacity="0.78" transform="translate(470.0 105.0) scale(0.78)"><ellipse cx="0" cy="14" rx="34" ry="16" fill="#ffffff"/><circle cx="-20" cy="6" r="18" fill="#ffffff"/><circle cx="2" cy="0" r="24" fill="#ffffff"/><circle cx="24" cy="8" r="18" fill="#ffffff"/></g><g data-cloud="sky-cloud" opacity="0.84" transform="translate(1080.0 155.0) scale(0.92)"><ellipse cx="0" cy="14" rx="34" ry="16" fill="#ffffff"/><circle cx="-20" cy="6" r="18" fill="#ffffff"/><circle cx="2" cy="0" r="24" fill="#ffffff"/><circle cx="24" cy="8" r="18" fill="#ffffff"/></g><path d="M160,150 C260,120 310,180 420,148 C500,124 560,130 620,150" fill="none" stroke="#ffffff" stroke-width="3" opacity="0.62" stroke-linecap="round"/><path d="M210,178 C300,150 355,198 470,170" fill="none" stroke="#ffffff" stroke-width="2" opacity="0.45" stroke-linecap="round"/><path d="M0,276 C170,240 340,292 520,268 C720,242 930,294 1200,266 L1200,320 L0,320 Z" fill="#8fbd62" opacity="0.42"/><path d="M0,292 C210,260 410,300 615,280 C815,262 1000,298 1200,282 L1200,320 L0,320 Z" fill="#8fbd62" opacity="0.66"/><ellipse cx="260.0" cy="72.0" rx="8.0" ry="3.6" fill="#7cab55" transform="rotate(-24.0 260.0 72.0)"/><ellipse cx="370.0" cy="118.0" rx="8.0" ry="3.6" fill="#7cab55" transform="rotate(18.0 370.0 118.0)"/><ellipse cx="720.0" cy="92.0" rx="8.0" ry="3.6" fill="#7cab55" transform="rotate(-30.0 720.0 92.0)"/><ellipse cx="840.0" cy="142.0" rx="8.0" ry="3.6" fill="#7cab55" transform="rotate(12.0 840.0 142.0)"/><ellipse cx="1100.0" cy="98.0" rx="8.0" ry="3.6" fill="#7cab55" transform="rotate(-18.0 1100.0 98.0)"/><path d="M55,299 L55,283" stroke="#6d9b59" stroke-width="1.4"/><circle cx="55" cy="283" r="3.3" fill="#f2c85d"/><path d="M88,299 L88,283" stroke="#6d9b59" stroke-width="1.4"/><circle cx="88" cy="283" r="3.3" fill="#f2c85d"/><path d="M112,299 L112,283" stroke="#6d9b59" stroke-width="1.4"/><circle cx="112" cy="283" r="3.3" fill="#f2c85d"/><path d="M1040,299 L1040,279" stroke="#6d9b59" stroke-width="1.4"/><circle cx="1040" cy="279" r="3.3" fill="#f2c85d"/><path d="M1080,299 L1080,287" stroke="#6d9b59" stroke-width="1.4"/><circle cx="1080" cy="287" r="3.3" fill="#f2c85d"/><path d="M1130,299 L1130,279" stroke="#6d9b59" stroke-width="1.4"/><circle cx="1130" cy="279" r="3.3" fill="#f2c85d"/></svg>